# xmcd
#
# Track frame offsets:
#	150
#	19705
#	42303
#	56122
#	73789
#	89788
#	114041
#	133327
#	148127
#	168738
#	180928
#	199530
#	217093
#	233479
#	249310
#
# Disc length: 3640 seconds
#
# Revision: 1
# Processed by: cddbd v1.5.2PL0 Copyright (c) Steve Scherf et al.
# Submitted via: audiograbber 1.83.01
#
DISCID=db0e360f
DTITLE=тфыятфгс циыяцос [2005] - жетос то йакойаияайи
DYEAR=2005
DGENRE=
TTITLE0=жетос то йакойаияайи - паяадосиайо л. асиас
TTITLE1=циыяцитса
TTITLE2=осо бахиа еим г хакасса
TTITLE3=пес лоу йаи циамта
TTITLE4=лгко лоу йаи ламтаяими
TTITLE5=ле цекасам та поукиа
TTITLE6=сима лоу
TTITLE7=г лпафаяцйама
TTITLE8=ьаяадес
TTITLE9=дуо цужтопоукес сто боумо
TTITLE10=веилаяиытийо
TTITLE11=о ваяос
TTITLE12=оса боума йи ам пеяаса
TTITLE13=ти ма соу йамы вазды лоу
TTITLE14=ои йкежтес лпаялпеяифомтаи
EXTD=
EXTT0=
EXTT1=
EXTT2=
EXTT3=
EXTT4=
EXTT5=
EXTT6=
EXTT7=
EXTT8=
EXTT9=
EXTT10=
EXTT11=
EXTT12=
EXTT13=
EXTT14=
PLAYORDER=
